<?xml version="1.0" encoding="UTF-8" standalone="no"?>
<!-- Created with Inkscape (http://www.inkscape.org/) -->

<svg
   xmlns:dc="http://purl.org/dc/elements/1.1/"
   xmlns:cc="http://creativecommons.org/ns#"
   xmlns:rdf="http://www.w3.org/1999/02/22-rdf-syntax-ns#"
   xmlns:svg="http://www.w3.org/2000/svg"
   xmlns="http://www.w3.org/2000/svg"
   xmlns:sodipodi="http://sodipodi.sourceforge.net/DTD/sodipodi-0.dtd"
   xmlns:inkscape="http://www.inkscape.org/namespaces/inkscape"
   version="1.2"
   width="5000"
   height="1170"
   id="svg2542"
   inkscape:version="0.47 r22583"
   sodipodi:docname="logo.svg">
  <metadata
     id="metadata3066">
    <rdf:RDF>
      <cc:Work
         rdf:about="">
        <dc:format>image/svg+xml</dc:format>
        <dc:type
           rdf:resource="http://purl.org/dc/dcmitype/StillImage" />
      </cc:Work>
    </rdf:RDF>
  </metadata>
  <sodipodi:namedview
     pagecolor="#ffffff"
     bordercolor="#666666"
     borderopacity="1"
     objecttolerance="10"
     gridtolerance="10"
     guidetolerance="10"
     inkscape:pageopacity="0"
     inkscape:pageshadow="2"
     inkscape:window-width="1232"
     inkscape:window-height="665"
     id="namedview3064"
     showgrid="false"
     inkscape:zoom="0.20516774"
     inkscape:cx="1373.5417"
     inkscape:cy="584.41558"
     inkscape:window-x="105"
     inkscape:window-y="18"
     inkscape:window-maximized="0"
     inkscape:current-layer="svg2542" />
  <defs
     id="defs2544">
    <inkscape:perspective
       sodipodi:type="inkscape:persp3d"
       inkscape:vp_x="0 : 585 : 1"
       inkscape:vp_y="0 : 1000 : 0"
       inkscape:vp_z="5000 : 585 : 1"
       inkscape:persp3d-origin="2500 : 390 : 1"
       id="perspective3068" />
  </defs>
  <g
     id="layer1" />
  <g
     id="layer3">
    <g
       transform="matrix(0.66151426,0,0,0.66148779,342.45889,244.32748)"
       id="g2657">
      <path
         d="m 400,912.36218 0,40 -330,0 0,-40 90,0 0,-740 -90,0 0,-40 30,0 c 0,0 140,40 200,140 l 0,240 45,0 0,40 -45,0 0,360 100,0 z"
         id="path2455"
         style="fill:#000000;fill-opacity:1;fill-rule:evenodd;stroke:#000000;stroke-width:1px;stroke-linecap:butt;stroke-linejoin:miter;stroke-opacity:1" />
      <path
         d="m 380,952.36218 0,0 z"
         id="path2457"
         style="fill:none;stroke:#000000;stroke-width:1px;stroke-linecap:butt;stroke-linejoin:miter;stroke-opacity:1" />
      <path
         d="m 365,512.36218 0,40 c 0,0 65,10 75,40 10,30 10,100 10,100 l 40,0 0,-320 -40,0 c 0,0 0.28991,58.84034 -10,100 -10,40 -75,40 -75,40 z"
         id="path3229"
         style="fill:#000000;fill-opacity:1;fill-rule:evenodd;stroke:#000000;stroke-width:1px;stroke-linecap:butt;stroke-linejoin:miter;stroke-opacity:1" />
      <path
         d="m 600,260.36218 60,0 0,122 -30,0 c 0,0 0,-80 -30,-110 l 0,-12 z"
         id="path3231"
         style="fill:#000000;fill-opacity:1;fill-rule:evenodd;stroke:#000000;stroke-width:1px;stroke-linecap:butt;stroke-linejoin:miter;stroke-opacity:1" />
      <path
         d="m 530,122.36218 c 0,0 130,-39.999997 140,10 10,50 -190,130 -230,110 l -10,10 c 0,0 150,0 230,0 80,0 20,-40 20,-50 0,-10 13.92232,-18.62142 10,-50 -10,-79.999997 -160,-30 -160,-30"
         id="path3235"
         style="fill:#000000;fill-opacity:1;fill-rule:evenodd;stroke:#000000;stroke-width:5;stroke-linecap:butt;stroke-linejoin:miter;stroke-miterlimit:4;stroke-opacity:1;stroke-dasharray:none" />
      <path
         d="m 162.61673,67.58045 c 19.34291,-11.732567 35.92494,-10.843282 75.92494,-10.843282 40,0 54.37499,17.569453 54.37499,17.569453 M 480,172.36218 c 0,0 -47.69587,106.08111 -120,130 -29.77455,9.8497 -64.16404,-54.72891 -87.17888,-77.43916 -10.37015,-10.2329 -33.41858,-29.73496 -41.94381,-36.83091 C 187.91651,152.33381 130,112.36218 130,112.36218 c -11.55925,-6.6528 -10,-49.999997 10,-49.999997 20,0 22.04277,6.201358 34.47332,12.034671"
         id="path3257"
         style="fill:none;stroke:#000000;stroke-width:5;stroke-linecap:round;stroke-linejoin:miter;stroke-miterlimit:4;stroke-opacity:1;stroke-dasharray:none" />
      <path
         d="m 270,82.362183 c 0,0 50,-20 90,-10 40,10 83.40277,32.916657 83.40277,32.916657"
         id="path3259"
         style="fill:none;stroke:#000000;stroke-width:5;stroke-linecap:round;stroke-linejoin:miter;stroke-miterlimit:4;stroke-opacity:1;stroke-dasharray:none" />
      <path
         d="m 390,132.36218 c 0,0 90,-49.999997 130,-49.999997 40,0 60.48611,29.027777 60.48611,29.027777"
         id="path3261"
         style="fill:none;stroke:#000000;stroke-width:5;stroke-linecap:round;stroke-linejoin:miter;stroke-miterlimit:4;stroke-opacity:1;stroke-dasharray:none" />
      <path
         d="m 125,107.36218 c 0,0 -24.23849,20.9281 -16.94444,22.6736 25.97222,6.21527 59.5102,23.13502 104.27084,49.75695 26.4939,15.75757 52.79726,37.16659 52.79726,37.16659 0,0 -30.87668,-30.26148 -89.02103,-70.21278 C 133.67467,117.59406 126,107.36218 125,107.36218 z"
         id="path3263"
         style="fill:#000000;fill-opacity:1;fill-rule:evenodd;stroke:#000000;stroke-width:1px;stroke-linecap:butt;stroke-linejoin:miter;stroke-opacity:1" />
      <path
         d="m 195,127.36218 c 0,0 -15,-15 -5,-20 14.14214,-7.07107 10,-5 10,-5"
         id="path3265"
         style="fill:none;stroke:#000000;stroke-width:5;stroke-linecap:round;stroke-linejoin:miter;stroke-miterlimit:4;stroke-opacity:0;stroke-dasharray:none" />
      <path
         d="m 270,172.36218 c 0,0 25.51317,-10.51316 35,-20 10,-10 25,-30 25,-30"
         id="path3267"
         style="fill:none;stroke:#000000;stroke-width:5;stroke-linecap:round;stroke-linejoin:miter;stroke-miterlimit:4;stroke-opacity:0;stroke-dasharray:none" />
      <path
         d="m 245,157.36218 c 0,0 -3.40276,9.86109 -13.40276,-0.13891 -10,-10 -18.40277,-13.40276 -18.40277,-18.40276 0,-5 19.39109,-27.33559 16.80553,-16.45833 -6.04161,25.4166 15,35 15,35"
         id="path3269"
         style="fill:none;stroke:#000000;stroke-width:1px;stroke-linecap:butt;stroke-linejoin:miter;stroke-opacity:0" />
      <path
         d="m 315,237.36218 c 0,0 -3.53553,-11.46446 0,-15 10,-10 10,-20 10,-20"
         id="path3271"
         style="fill:none;stroke:#000000;stroke-width:5;stroke-linecap:round;stroke-linejoin:miter;stroke-miterlimit:4;stroke-opacity:0;stroke-dasharray:none" />
      <path
         d="m 520,182.36218 c 0,0 6.05573,-20.52787 15,-25 10,-5 15,-20 15,-20"
         id="path3273"
         style="fill:none;stroke:#000000;stroke-width:5;stroke-linecap:round;stroke-linejoin:miter;stroke-miterlimit:4;stroke-opacity:0;stroke-dasharray:none" />
      <path
         d="m 515,207.36218 c 0,0 29.74719,-7.3104 40,-15 20,-15 30,-30 30,-30"
         id="path3275"
         style="fill:none;stroke:#000000;stroke-width:5;stroke-linecap:round;stroke-linejoin:miter;stroke-miterlimit:4;stroke-opacity:0;stroke-dasharray:none" />
      <path
         d="m 625,137.36218 c 0,0 -5,10 5,15 10,5 20,-2.92893 20,-10 0,-10 -24.2105,-4.64262 -25,-5 z"
         id="path3277"
         style="fill:none;stroke:#000000;stroke-width:1px;stroke-linecap:butt;stroke-linejoin:miter;stroke-opacity:0" />
      <path
         d="m 370,407.36218 a 15,15 0 1 1 -30,0 15,15 0 1 1 30,0 z"
         id="path3279"
         style="fill:#000000;fill-opacity:1;stroke:#000000;stroke-width:5;stroke-linecap:round;stroke-miterlimit:4;stroke-opacity:1;stroke-dasharray:none;stroke-dashoffset:0" />
      <path
         d="m 370,457.36218 a 15,15 0 1 1 -30,0 15,15 0 1 1 30,0 z"
         id="path3281"
         style="fill:#000000;fill-opacity:1;stroke:#000000;stroke-width:5;stroke-linecap:round;stroke-miterlimit:4;stroke-opacity:1;stroke-dasharray:none;stroke-dashoffset:0" />
      <path
         d="m 355,307.45309 0,270"
         id="path3283"
         style="fill:none;stroke:#000000;stroke-width:9.90867424;stroke-linecap:round;stroke-linejoin:miter;stroke-miterlimit:4;stroke-opacity:1;stroke-dasharray:none" />
      <path
         d="m 370,587.36218 a 15,15 0 1 1 -30,0 15,15 0 1 1 30,0 z"
         id="path3285"
         style="fill:#000000;fill-opacity:1;stroke:#000000;stroke-width:10;stroke-linecap:round;stroke-miterlimit:4;stroke-opacity:1;stroke-dasharray:none;stroke-dashoffset:0" />
      <path
         d="m 340,582.36218 c 0,0 -10,45 -10,60 0,10 0,120 0,130 0,10 -5,115 0,120 5,5 50,5 55,0 5,-5 0,-125 0,-160 0,-22.36068 -5,-80 -5,-100 0,-5 -10,-50 -10,-50 l -30,0 z"
         id="path3287"
         style="fill:#000000;fill-opacity:1;fill-rule:evenodd;stroke:#000000;stroke-width:5;stroke-linecap:round;stroke-linejoin:miter;stroke-miterlimit:4;stroke-opacity:1;stroke-dasharray:none" />
    </g>
  </g>
  <g
     id="layer4"
     style="opacity:0.00819672"
     transform="matrix(1.1591584,0,0,1.1591584,-91.883361,-93.174996)">
    <path
       d="m 702.85715,508.07648 a 272.85715,272.85715 0 1 1 -545.7143,0 272.85715,272.85715 0 1 1 545.7143,0 z"
       transform="matrix(1.3153473,0,0,1.3152932,12.839581,-81.361189)"
       id="path2694"
       style="fill:#ffff00" />
  </g>
  <g
     id="layer5"
     transform="matrix(1.1591584,0,0,1.1591584,-91.883361,-93.174996)">
    <text
       x="-254.08336"
       y="262.32053"
       transform="matrix(1.022262,-0.06328158,0.06032921,0.97448821,0,0)"
       id="text2499"
       xml:space="preserve"
       style="font-size:97.84222412px;font-style:normal;font-variant:normal;font-weight:normal;font-stretch:normal;text-align:start;line-height:100%;writing-mode:lr-tb;text-anchor:start;fill:#000000;fill-opacity:1;stroke:none;font-family:Arial Black;-inkscape-font-specification:Arial Black"
       sodipodi:linespacing="100%"><tspan
         x="-254.08336"
         y="262.32053"
         dx="448.72733 -77.727303 -82.7966 -63.815891 -33.670441 -58.357433 -42.606739 -31.736897 -20.867077 -22.894785 -11.353212 -7.2892294 -9.7446585 -10.005603 -17.517256 -21.461367 -34.889137 -41.694965 -18.077688 -71.63475 -78.778595 -77.824272"
         dy="488.09183 -51.825638 -60.385181 -63.426743 -29.225824 -66.810364 -50.965454 -50.529182 -50.529194 -36.664875 -16.328279 -7.6252103 7.0667958 23.655832 31.781338 40.505787 55.030827 55.920475 25.850298 74.612076 76.192696 62.356068"
         rotate="254.72588 264.48685 274.12964 281.59882 289.82635 299.92538 308.86475 320.48889 332.16797 346.70502 354.45724 5.2497296 17.4349 29.381954 39.194775 50.607113 62.432812 70.578735 84.125366 87.719803 96.921623 108.24422"
         id="tspan2427"
         style="font-size:97.84222412px;font-style:normal;font-variant:normal;font-weight:normal;font-stretch:normal;text-align:start;line-height:100%;writing-mode:lr-tb;text-anchor:start;font-family:Arial Black;-inkscape-font-specification:Arial Black">FYSIKTEKNOLOGSEKTIONEN</tspan></text>
    <text
       x="226.35056"
       y="1056.5845"
       transform="scale(1.0478085,0.95437286)"
       id="text2434"
       xml:space="preserve"
       style="font-size:97.84236145px;font-style:normal;font-variant:normal;font-weight:normal;font-stretch:normal;text-align:start;line-height:125%;writing-mode:lr-tb;text-anchor:start;fill:#000000;fill-opacity:1;stroke:none;font-family:Arial Black;-inkscape-font-specification:Arial Black"
       sodipodi:linespacing="125%"><tspan
         x="226.35056"
         y="1056.5845"
         dx="35.041328 -17.308683 -13.241404 -4.4912524 2.6947505 12.368302 6.4793749 -6.6207023"
         dy="-121.44336 50.553543 40.788929 23.929384 11.561076 -7.6351333 -25.443245 -40.788929"
         rotate="42.117336 31.276354 19.480658 11.269689 357.10699 342.38916 331.35333 322.99109"
         id="tspan2436"
         style="font-size:97.84236145px;font-style:normal;font-variant:normal;font-weight:normal;font-stretch:normal;text-align:start;line-height:125%;writing-mode:lr-tb;text-anchor:start;font-family:Arial Black;-inkscape-font-specification:Arial Black">CHALMERS</tspan></text>
    <path
       d="m 703.00387,564.76253 a 40,40 0 1 1 -0.77472,-1.09174"
       transform="matrix(0.84965704,0,0,0.84962112,341.6122,307.85268)"
       id="path2446"
       style="fill:#000000" />
    <path
       d="m 703.00387,564.76253 a 40,40 0 1 1 -0.77472,-1.09174"
       transform="matrix(0.84965704,0,0,0.84962112,-321.58805,309.21198)"
       id="path2448"
       style="fill:#000000" />
    <text
       x="653.81335"
       y="599.25287"
       id="text2450"
       xml:space="preserve"
       style="font-size:40px;font-style:normal;font-weight:normal;fill:#000000;fill-opacity:1;stroke:none;font-family:Bitstream Vera Sans"><tspan
         x="653.81335"
         y="599.25287"
         id="tspan2452" /></text>
  </g>
  <g
     id="layer6"
     style="opacity:0.46311478" />
  <g
     id="layer2">
    <flowRoot
       transform="matrix(1.2730318,0,0,1.2730318,-369.71273,299.82622)"
       id="flowRoot2853"
       xml:space="preserve"
       style="font-size:300px;font-style:normal;font-variant:normal;font-weight:normal;font-stretch:normal;text-align:start;line-height:100%;writing-mode:lr-tb;text-anchor:start;fill:#000000;fill-opacity:1;stroke:none;font-family:Adobe Caslon Pro;-inkscape-font-specification:Adobe Caslon Pro"><flowRegion
         id="flowRegion2855"><rect
           width="3607.8005"
           height="498.37488"
           x="1278.4398"
           y="129.91333"
           id="rect2857"
           style="font-size:300px;font-style:normal;font-variant:normal;font-weight:normal;font-stretch:normal;text-align:start;line-height:100%;writing-mode:lr-tb;text-anchor:start;font-family:Adobe Caslon Pro;-inkscape-font-specification:Adobe Caslon Pro" /></flowRegion><flowPara
         id="flowPara2859">Fysikteknologsektionen</flowPara></flowRoot>  </g>
</svg>
